<?xml version="1.0" encoding="UTF-8" standalone="no"?>
<!-- Created with Inkscape (http://www.inkscape.org/) -->

<svg
   width="62.468197mm"
   height="72.924751mm"
   viewBox="0 0 62.468197 72.924751"
   version="1.1"
   id="svg1"
   xml:space="preserve"
   inkscape:version="1.4.3 (0d15f75042, 2025-12-25)"
   sodipodi:docname="April Conversation Picture.svg"
   xmlns:inkscape="http://www.inkscape.org/namespaces/inkscape"
   xmlns:sodipodi="http://sodipodi.sourceforge.net/DTD/sodipodi-0.dtd"
   xmlns="http://www.w3.org/2000/svg"
   xmlns:svg="http://www.w3.org/2000/svg"><sodipodi:namedview
     id="namedview1"
     pagecolor="#ffffff"
     bordercolor="#000000"
     borderopacity="0.25"
     inkscape:showpageshadow="2"
     inkscape:pageopacity="0.0"
     inkscape:pagecheckerboard="0"
     inkscape:deskcolor="#d1d1d1"
     inkscape:document-units="mm"
     inkscape:zoom="0.18774726"
     inkscape:cx="884.16735"
     inkscape:cy="-247.67338"
     inkscape:window-width="1868"
     inkscape:window-height="1052"
     inkscape:window-x="0"
     inkscape:window-y="0"
     inkscape:window-maximized="1"
     inkscape:current-layer="layer2"><inkscape:page
       x="0"
       y="0"
       width="62.468197"
       height="72.924751"
       id="page2"
       margin="0"
       bleed="0" /></sodipodi:namedview><defs
     id="defs1" /><g
     inkscape:groupmode="layer"
     id="layer2"
     inkscape:label="Vectors"
     transform="translate(-117.7063,-109.12264)"><g
       id="g37"
       inkscape:label="Fries"
       style="stroke:#000000;stroke-width:4.45377;stroke-dasharray:none;stroke-opacity:1"
       transform="matrix(0.29703289,0,0,0.29703289,-40.625624,144.44544)"
       inkscape:export-filename="Teaching Resource/Raster (Recommended)/French Fries.png"
       inkscape:export-xdpi="400"
       inkscape:export-ydpi="400"><path
         style="fill:none;stroke:#000000;stroke-width:4.45377;stroke-linecap:round;stroke-linejoin:bevel;stroke-miterlimit:12.8;stroke-dasharray:none;stroke-opacity:1"
         d="m 578.1459,115.91103 -31.35587,-135.99288 38.75444,11.626334 c 35.52318,-5.881664 70.04987,-6.116539 103.58006,-0.7046261 L 729.64055,-19.729537 698.2847,116.26334 c -44.03915,10.92171 -84.08542,10.80427 -120.1388,-0.35231 z"
         id="path19"
         sodipodi:nodetypes="ccccccc" /><path
         id="path20"
         style="fill:none;stroke:#000000;stroke-width:4.45377;stroke-linecap:round;stroke-miterlimit:12.8;stroke-dasharray:none;stroke-opacity:1"
         d="m 552.77918,-80.67983 -16.7349,5.284949 25.0548,59.605664 21.34495,6.4037434 z" /><path
         id="path21"
         style="fill:none;stroke:#000000;stroke-width:4.45377;stroke-linecap:round;stroke-miterlimit:12.8;stroke-dasharray:none;stroke-opacity:1"
         d="m 573.03737,-101.81859 -18.14411,4.932514 9.22218,43.451095 18.32859,44.0495074 3.10059,0.9301757 c 2.89599,-0.4794958 5.78495,-0.92158 8.66769,-1.3260172 -0.88028,0.1234915 -1.76121,0.2503543 -2.64273,0.3808553 l -22.58364,-82.9055342 5.8906,-1.518253 z" /><path
         id="path22"
         style="fill:none;stroke:#000000;stroke-width:4.45377;stroke-linecap:round;stroke-miterlimit:12.8;stroke-dasharray:none;stroke-opacity:1"
         d="m 586.07275,-96.709859 -17.08681,4.403865 22.58364,82.9055342 c 5.45021,-0.8068522 10.87662,-1.4796922 16.27962,-2.0189982 -0.97968,0.09779 -1.96018,0.199855 -2.94142,0.306441 l -17.95394,-66.74838 3.63233,-1.171505 z" /><path
         id="path23"
         style="fill:none;stroke:#000000;stroke-width:4.45377;stroke-linecap:round;stroke-miterlimit:12.8;stroke-dasharray:none;stroke-opacity:1"
         d="m 603.3363,-83.145829 -16.38246,5.284432 17.95394,66.74838 c 6.19495,-0.672917 12.35882,-1.170628 18.49189,-1.492932 z" /><path
         id="path24"
         style="fill:none;stroke:#000000;stroke-width:4.45377;stroke-linecap:round;stroke-miterlimit:12.8;stroke-dasharray:none;stroke-opacity:1"
         d="m 607.38773,-113.62097 -18.80454,2.11408 4.55528,31.650266 10.19783,-3.289205 7.27552,25.579317 -3.97236,-45.617368 1.55287,-0.20102 z" /><path
         id="path25"
         style="fill:none;stroke:#000000;stroke-width:4.45377;stroke-linecap:round;stroke-miterlimit:12.8;stroke-dasharray:none;stroke-opacity:1"
         d="m 625.35563,-105.60596 -18.71617,2.42208 3.97236,45.617368 12.78785,44.960563 c -1.27747,0.06713 -2.55631,0.141924 -3.83645,0.224276 5.81245,-0.373877 11.59738,-0.590841 17.35449,-0.651123 v -5.17e-4 c -1.6462,0.01724 -3.2947,0.04756 -4.94543,0.09043 h -5.2e-4 l -8.46563,-80.596114 3.30626,-0.404627 z" /><path
         id="path26"
         style="fill:none;stroke:#000000;stroke-width:4.45377;stroke-linecap:round;stroke-miterlimit:12.8;stroke-dasharray:none;stroke-opacity:1"
         d="m 640.76967,-95.653076 -17.26354,2.114083 8.46563,80.596114 c 1.7e-4,-5e-6 3.5e-4,4e-6 5.2e-4,0 5.81098,-0.150942 11.5939,-0.143028 17.34881,0.02377 z" /><path
         id="path27"
         style="fill:none;stroke:#000000;stroke-width:4.45377;stroke-linecap:round;stroke-miterlimit:12.8;stroke-dasharray:none;stroke-opacity:1"
         d="m 631.09068,-116.40271 -3.51297,22.365039 13.19196,-1.615405 0.54674,5.288049 3.84989,-18.065563 2.96106,0.28474 0.77567,-5.70353 z" /><path
         id="path28"
         style="display:inline;fill:none;stroke:#000000;stroke-width:4.45377;stroke-linecap:butt;stroke-linejoin:bevel;stroke-miterlimit:12.8;stroke-dasharray:none;stroke-opacity:1"
         d="m 645.1663,-108.43059 -3.84989,18.065563 7.81089,75.571615 1.2883,-6.415629 14.18259,-85.353449 z m 1.37253,95.443269 c 0.73891,0.01482 1.47738,0.03266 2.21537,0.05271 v -5.17e-4 c -0.73808,-0.02001 -1.4763,-0.03737 -2.21537,-0.05219 z m 2.21537,0.05271 c 0.0951,0.0026 0.18702,0.02368 0.28215,0.02636 l 0.003,-0.0186 c -0.095,-0.0027 -0.1902,-0.0052 -0.28525,-0.0078 z" /><path
         id="path29"
         style="display:inline;fill:none;stroke:#000000;stroke-width:4.45377;stroke-linecap:round;stroke-miterlimit:12.8;stroke-dasharray:none;stroke-opacity:1"
         d="m 669.3948,-115.73505 -20.6406,102.800439 c 5.68993,0.15455 11.35245,0.46422 16.98759,0.929142 l 9.46661,-77.129659 7.62589,0.962215 4.70462,-25.271847 z" /><path
         id="path30"
         style="display:inline;fill:none;stroke:#000000;stroke-width:4.45377;stroke-linecap:round;stroke-miterlimit:12.8;stroke-dasharray:none;stroke-opacity:1"
         d="m 675.2084,-89.135128 -9.46661,77.129659 c 5.10107,0.420893 10.17958,0.969094 15.23577,1.644344 -0.9155,-0.122262 -1.8317,-0.240574 -2.74867,-0.3545 l 11.2205,-52.006128 3.90312,-24.123592 z" /><path
         id="path31"
         style="display:inline;fill:none;stroke:#000000;stroke-width:4.45377;stroke-linecap:round;stroke-miterlimit:12.8;stroke-dasharray:none;stroke-opacity:1"
         d="m 695.64229,-91.425427 -17.4134,80.709802 c 3.64347,0.452668 7.27522,0.9711389 10.89545,1.5554606 l 4.33566,-1.1311966 4.48551,-9.601482 13.90303,-69.242285 z" /><path
         id="path32"
         style="display:inline;fill:none;stroke:#000000;stroke-width:4.45377;stroke-linecap:round;stroke-miterlimit:12.8;stroke-dasharray:none;stroke-opacity:1"
         d="m 704.80246,-98.647725 -2.53783,8.158158 9.58391,1.354439 -9.26869,46.16204 18.25264,-49.509122 z" /><path
         id="path33"
         style="display:inline;fill:none;stroke:#000000;stroke-width:4.45377;stroke-linecap:round;stroke-miterlimit:12.8;stroke-dasharray:none;stroke-opacity:1"
         d="m 723.299,-74.161882 -29.839,63.870521 24.62743,-6.424415 22.2989,-50.576241 z" /><path
         id="path34"
         style="display:inline;fill:none;stroke:#000000;stroke-width:4.45377;stroke-linecap:round;stroke-linejoin:bevel;stroke-miterlimit:12.8;stroke-dasharray:none;stroke-opacity:1"
         d="m 555.05087,-30.178003 -8.36134,10.589939 14.40955,3.798847 z"
         sodipodi:nodetypes="cccc" /><path
         id="path35"
         style="display:inline;fill:none;stroke:#000000;stroke-width:4.45377;stroke-linecap:round;stroke-linejoin:bevel;stroke-miterlimit:12.8;stroke-dasharray:none;stroke-opacity:1"
         d="m 723.55067,-29.107267 -5.46324,12.391491 11.61936,-2.573378 z"
         sodipodi:nodetypes="cccc" /><path
         style="fill:none;stroke:#000000;stroke-width:4.45377;stroke-linecap:round;stroke-miterlimit:12.8;stroke-dasharray:none;stroke-opacity:1"
         d="M 585.54447,-8.455516 603.94045,121.90251"
         id="path36" /><path
         style="fill:none;stroke:#000000;stroke-width:4.45377;stroke-linecap:round;stroke-miterlimit:12.8;stroke-dasharray:none;stroke-opacity:1"
         d="M 689.12432,-9.1601643 673.06157,121.3801"
         id="path37" /></g></g></svg>
