<?xml version="1.0" encoding="UTF-8" standalone="no"?>
<!-- Created with Inkscape (http://www.inkscape.org/) -->

<svg
   width="43.797714mm"
   height="99.650101mm"
   viewBox="0 0 43.797714 99.650101"
   version="1.1"
   id="svg1"
   xml:space="preserve"
   inkscape:version="1.4.3 (0d15f75042, 2025-12-25)"
   sodipodi:docname="April Conversation Picture.svg"
   xmlns:inkscape="http://www.inkscape.org/namespaces/inkscape"
   xmlns:sodipodi="http://sodipodi.sourceforge.net/DTD/sodipodi-0.dtd"
   xmlns="http://www.w3.org/2000/svg"
   xmlns:svg="http://www.w3.org/2000/svg"><sodipodi:namedview
     id="namedview1"
     pagecolor="#ffffff"
     bordercolor="#000000"
     borderopacity="0.25"
     inkscape:showpageshadow="2"
     inkscape:pageopacity="0.0"
     inkscape:pagecheckerboard="0"
     inkscape:deskcolor="#d1d1d1"
     inkscape:document-units="mm"
     inkscape:zoom="0.18774726"
     inkscape:cx="884.16735"
     inkscape:cy="-247.67338"
     inkscape:window-width="1868"
     inkscape:window-height="1052"
     inkscape:window-x="0"
     inkscape:window-y="0"
     inkscape:window-maximized="1"
     inkscape:current-layer="layer2"><inkscape:page
       x="0"
       y="0"
       width="43.797714"
       height="99.650101"
       id="page2"
       margin="0"
       bleed="0" /></sodipodi:namedview><defs
     id="defs1"><inkscape:path-effect
       effect="fillet_chamfer"
       id="path-effect94"
       is_visible="true"
       lpeversion="1"
       nodesatellites_param="F,0,0,1,0,0,0,1 @ F,0,0,1,0,2.4210085,0,1 @ F,0,0,1,0,0,0,1 @ F,0,0,1,0,0,0,1 @ F,0,0,1,0,2.6940334,0,1 @ F,0,0,1,0,0,0,1"
       radius="0"
       unit="px"
       method="auto"
       mode="F"
       chamfer_steps="1"
       flexible="false"
       use_knot_distance="true"
       apply_no_radius="true"
       apply_with_radius="true"
       only_selected="false"
       hide_knots="false" /></defs><g
     inkscape:groupmode="layer"
     id="layer2"
     inkscape:label="Vectors"
     transform="translate(-28.764742,-87.192911)"><g
       id="g43"
       inkscape:label="Chicken"
       style="stroke:#000000;stroke-width:2.9084;stroke-dasharray:none;stroke-opacity:1"
       transform="matrix(0.45485995,0,0,0.45485995,-135.1528,218.97616)"
       inkscape:export-filename="Teaching Resource/Vectors/Fried Chicken.svg"
       inkscape:export-xdpi="400"
       inkscape:export-ydpi="400"><path
         style="fill:none;stroke:#000000;stroke-width:2.9084;stroke-linecap:butt;stroke-linejoin:bevel;stroke-miterlimit:12.8;stroke-dasharray:none;stroke-opacity:1"
         d="m 493.53211,-294.40482 c -4.91768,1.88163 -9.31715,6.801 -13.84521,4.17799 -3.20325,-1.85557 -7.7235,-0.89114 -11.40792,-3.44588 -1.9612,-1.35988 -4.86615,-6.09232 -6.74875,-6.67427 -8.58332,-2.65329 -2.69509,-10.88804 -4.75621,-17.3514 -2.26699,-7.10893 -10.49271,-9.63252 -10.74554,-17.26335 -0.0856,-2.5838 -0.85326,-2.85741 -4.65681,-4.2327 -2.44418,-0.88377 -4.19862,-4.92288 -9.25957,-2.81356 -4.97272,2.07254 -7.28697,0.11083 -9.81715,-4.91868 -1.52243,-3.02633 -5.49284,-2.99249 -7.27005,-2.4799 -5.6858,1.63994 -7.87932,-2.43778 -11.26148,-7.29356 -2.49609,-3.58364 -3.92086,-3.44437 -8.1438,-4.50406 -3.31678,-0.8323 -6.87063,-5.96938 -9.65353,-6.17218 -4.39415,-0.32022 -7.43721,-1.70556 -7.59947,-6.40027 -0.10405,-3.01048 -2.01119,-9.00086 -8.26165,-9.98047 -2.32984,-0.36515 -1.68111,-4.41565 -2.29003,-6.69396 -0.63334,-2.3697 1.83799,-4.72084 -0.53732,-6.5996 -2.57945,-2.04024 -3.71704,-8.56592 -1.04809,-10.48759 2.023,-1.45658 0.54171,-4.74094 1.51429,-7.39673 0.93238,-2.54603 -1.10512,-7.187 0.48422,-9.1754 1.80309,-2.25582 1.78187,-5.25713 0.81999,-7.73747 -1.11234,-2.86832 0.74177,-4.94573 2.51597,-7.45904 0.84178,-1.19246 3.95768,-2.29647 4.91924,-3.71897 1.63819,-2.42347 2.47234,-5.93844 4.89575,-5.3807 4.77357,1.09861 9.03897,-5.91255 13.74021,-5.98934 5.18711,-0.0847 6.18377,-0.30536 8.63169,-1.93771 2.96323,-1.97597 8.34665,-1.89489 11.63101,-1.47078 2.994,0.38662 3.46925,2.83953 5.7926,2.75731 7.69647,-0.27236 7.42545,2.60604 8.64756,4.70279 3.69105,6.33266 15.85563,4.65713 17.08719,10.04091 1.47558,6.45053 14.21401,6.63533 12.68327,13.21176 -0.99562,4.27742 7.39596,5.57021 6.33096,9.83089 -0.52383,2.09564 0.14462,4.23676 2.02868,6.07214 2.18471,2.12826 1.32306,5.84765 -0.0785,8.15563 -1.79698,2.95924 -1.01882,6.80912 -0.41454,9.17323 1.1597,4.53699 3.00974,8.33682 0.66367,12.83383 -1.25992,2.41504 -4.12648,4.35957 -1.61746,9.34879 2.34466,4.66239 1.44712,9.87479 1.19036,14.51965 -0.41215,7.45596 0.17269,16.23295 9.0249,19.14764 3.20818,1.05633 6.13555,2.9061 6.34164,6.16548 0.17033,2.69377 2.97533,5.36491 5.637,5.81316 4.61135,0.7766 8.94766,2.79117 8.4555,9.68862 -0.15903,2.22874 -0.40066,5.66357 0.66372,7.62817 3.72491,6.87536 2.89534,11.56167 -4.28638,14.30958 z"
         id="path38"
         sodipodi:nodetypes="ssssssssssssssssssssssssssssssssssssssssssss" /><path
         style="fill:none;stroke:#000000;stroke-width:2.9084;stroke-linecap:round;stroke-linejoin:bevel;stroke-miterlimit:12.8;stroke-dasharray:none;stroke-opacity:1"
         d="m 474.74197,-295.06227 c 0.044,-2.41628 -0.47083,-5.04016 3.52314,-5.98932 2.25347,-0.53554 2.1514,-1.88557 2.64234,-3.17082 2.4613,-6.44356 5.84008,-4.18526 8.98401,-2.11389 0.83931,0.55298 2.99466,0.35232 2.99466,0.35232"
         id="path39"
         sodipodi:nodetypes="csssc" /><path
         style="fill:none;stroke:#000000;stroke-width:2.9084;stroke-linecap:round;stroke-linejoin:bevel;stroke-miterlimit:12.8;stroke-dasharray:none;stroke-opacity:1"
         d="m 469.80961,-304.75089 c 1.24129,-2.17115 3.85956,-3.48168 3.43503,-6.69396"
         id="path40"
         sodipodi:nodetypes="cc" /><path
         style="fill:none;stroke:#000000;stroke-width:2.9084;stroke-linecap:round;stroke-linejoin:bevel;stroke-miterlimit:12.8;stroke-dasharray:none;stroke-opacity:1"
         d="m 392.47685,-381.7313 c -6.45566,-3.1588 -7.34304,-7.5281 -2.99466,-13.0356"
         id="path41"
         sodipodi:nodetypes="cc" /><path
         style="fill:none;stroke:#000000;stroke-width:2.9084;stroke-linecap:round;stroke-linejoin:bevel;stroke-miterlimit:12.8;stroke-dasharray:none;stroke-opacity:1"
         d="m 381.20285,-393.70997 c -7.5421,-3.31684 -2.53743,-9.02355 -0.8808,-14.09253"
         id="path42"
         sodipodi:nodetypes="cc" /><path
         style="fill:none;stroke:#000000;stroke-width:2.9084;stroke-linecap:round;stroke-linejoin:bevel;stroke-miterlimit:12.8;stroke-dasharray:none;stroke-opacity:1"
         d="m 384.90212,-430.87901 c -1.88221,-0.78425 -0.37475,-8.45578 5.81319,-8.4555 3.51596,1.6e-4 6.87009,-4.05162 6.87009,-4.05162"
         id="path43"
         sodipodi:nodetypes="csc" /><path
         style="fill:none;stroke:#000000;stroke-width:2.9084;stroke-linecap:round;stroke-miterlimit:12.8;stroke-dasharray:none;stroke-opacity:1"
         d="m 452.65654,-401.58632 c 2.74292,3.83799 8.064,6.79204 5.48071,12.45616"
         id="path46"
         sodipodi:nodetypes="cc" /><path
         style="fill:none;stroke:#000000;stroke-width:2.9084;stroke-linecap:round;stroke-linejoin:round;stroke-miterlimit:43.7;stroke-dasharray:none;stroke-opacity:1"
         d="m 377.85735,-417.09424 c -1.67723,-5.46154 0.19382,-8.12748 3.98598,-9.27981"
         id="path134"
         sodipodi:nodetypes="cc" /><path
         style="fill:none;stroke:#000000;stroke-width:2.9084;stroke-linecap:round;stroke-linejoin:round;stroke-miterlimit:43.7;stroke-dasharray:none;stroke-opacity:1"
         d="m 391.67149,-363.61054 c -2.39923,-2.20315 -0.64901,-5.8086 -3.31829,-7.83073"
         id="path133"
         sodipodi:nodetypes="cc" /><path
         style="fill:none;stroke:#000000;stroke-width:2.9084;stroke-linecap:round;stroke-linejoin:round;stroke-miterlimit:43.7;stroke-dasharray:none;stroke-opacity:1"
         d="m 486.63256,-295.94307 c 1.88781,-1.43372 4.86964,-2.25966 4.84431,-4.75623"
         id="path132"
         sodipodi:nodetypes="cc" /><path
         style="fill:none;stroke:#000000;stroke-width:2.9084;stroke-linecap:round;stroke-linejoin:round;stroke-miterlimit:43.7;stroke-dasharray:none;stroke-opacity:1"
         d="m 417.84341,-355.13168 c -1.60092,0.51842 -3.27355,0.17629 -5.10852,-2.11387"
         id="path131"
         sodipodi:nodetypes="cc" /><path
         style="fill:none;stroke:#000000;stroke-width:2.9084;stroke-linecap:round;stroke-linejoin:round;stroke-miterlimit:43.7;stroke-dasharray:none;stroke-opacity:1"
         d="m 432.99287,-432.72866 c 4.851,-0.40952 10.13444,-1.35444 10.2171,4.1397"
         id="path130"
         sodipodi:nodetypes="cc" /><path
         style="fill:none;stroke:#000000;stroke-width:2.9084;stroke-linecap:round;stroke-linejoin:round;stroke-miterlimit:43.7;stroke-dasharray:none;stroke-opacity:1"
         d="m 413.8799,-442.06495 c 1.5875,-1.78929 3.89081,-2.4544 5.42708,-1.87729 1.53694,0.57735 2.29881,2.42023 3.5569,2.84615 2.65679,0.89945 5.85039,0.84991 5.19663,3.52313"
         id="path129"
         sodipodi:nodetypes="cssc" /></g><g
       id="g99"
       inkscape:label="Milkshake"
       style="stroke:#000000;stroke-width:3.39087;stroke-dasharray:none;stroke-opacity:1"
       transform="matrix(0.39014122,0,0,0.39014122,-206.71621,26.405692)"
       inkscape:export-filename="Teaching Resource/Raster (Recommended)/g99.png"
       inkscape:export-xdpi="400"
       inkscape:export-ydpi="400"><path
         id="path89"
         style="fill:none;stroke:#000000;stroke-width:3.39087;stroke-linecap:butt;stroke-miterlimit:0;stroke-dasharray:none;stroke-opacity:1"
         d="m 643.07754,380.02487 c -8.09282,5.74103 -16.33865,11.46834 -20.26129,17.83818 -1.31129,2.12936 -0.12046,5.18347 2.14767,6.25337 16.78934,7.91968 37.4126,6.093 53.05413,1.1405 2.16163,-0.68443 4.25459,-3.21427 3.7362,-5.40691 -1.78214,-7.53798 -11.69863,-13.25473 -20.50004,-19.01486 -1.76529,1.16704 -4.61404,1.84413 -8.94002,1.86966 -3.76911,0.0222 -7.20179,-0.93688 -9.23665,-2.67994 z" /><path
         id="path90"
         style="fill:none;stroke:#000000;stroke-width:3.39087;stroke-linecap:butt;stroke-miterlimit:0;stroke-dasharray:none;stroke-opacity:1"
         d="m 644.57099,371.23781 c -2.81062,1.03756 -3.55624,2.81767 -3.40806,5.19813 0.24698,3.96749 5.29241,6.30343 11.15126,6.26887 8.04864,-0.0475 10.98416,-2.34901 11.34039,-5.86941 0.28992,-2.86508 -1.14208,-4.53163 -3.28352,-5.47874 -2.32541,1.61294 -5.08398,2.66813 -7.88686,2.4474 -2.74737,-0.21637 -5.4677,-1.14218 -7.91321,-2.56625 z" /><path
         id="path92"
         style="fill:none;stroke:#000000;stroke-width:3.39087;stroke-linecap:butt;stroke-linejoin:round;stroke-miterlimit:43.7;stroke-dasharray:none;stroke-opacity:1"
         d="m 648.34285,186.0951 c 8.31243,7.93354 4.25907,13.26373 -4.886,14.10818 -6.24064,0.57626 -13.44646,1.68664 -16.62534,7.49309 0.74137,-0.008 1.47914,-0.0121 2.20141,0.004 -6.02961,-0.0978 -9.30235,2.43068 -10.69909,6.7169 1.37913,-0.33933 2.9169,-0.46602 4.4757,-0.49661 -6.70871,0.22024 -14.34912,3.12309 -12.92531,11.09907 0.1043,0.0634 0.20877,0.12649 0.31316,0.18913 20.76028,6.6052 58.53813,6.38835 78.15595,1.64848 2.23501,-2.55799 3.13918,-15.22036 -7.04401,-14.81512 1.11409,-0.0893 2.54313,-0.0502 3.66592,0.55135 -0.81847,-3.02969 -5.55273,-10.28593 -10.85515,-10.343 h -5.1e-4 l -4.06591,11.67939 c -0.75174,1.97701 -6.03655,1.09104 -5.43016,-0.6661 l 3.95377,-10.3849 c -0.93156,-10.59692 -11.07815,-13.26411 -20.23443,-16.78399 z"
         sodipodi:nodetypes="cscccccccccsccccc" /><path
         id="path93"
         style="fill:#000000;fill-opacity:1;stroke:#000000;stroke-width:3.39087;stroke-linecap:butt;stroke-miterlimit:0;stroke-dasharray:none;stroke-opacity:1"
         d="m 689.78632,221.71153 c -0.0763,2.25232 -0.66934,4.2454 -1.41387,5.1201 0.0643,-0.0156 0.16707,-0.0194 0.231,-0.0351 h 0.001 c 2.43652,-0.84772 4.26914,-1.28225 8.80928,-3.56929 -2.30667,-0.56983 -4.86788,-1.0737 -7.62744,-1.51567 z m -79.96618,0.063 c -1.94944,0.35276 -3.60397,0.73498 -4.90616,1.14256 l 2.82515,1.44694 c 2.8e-4,1.1e-4 10e-4,9e-4 0.002,10e-4 h 5.2e-4 c 2.5e-4,1.3e-4 7.5e-4,4.1e-4 10e-4,5.1e-4 0.63941,0.23727 1.45927,0.40104 2.13786,0.62322 -0.20742,-1.17983 -0.21745,-2.24929 -0.0599,-3.21427 z"
         sodipodi:nodetypes="cccccccccccccccc" /><path
         style="fill:none;stroke:#000000;stroke-width:3.39087;stroke-linecap:butt;stroke-miterlimit:5.8;stroke-dasharray:none;stroke-opacity:1"
         d="m 664.62375,213.26377 15.74177,-41.34841 a 5.4263699,5.4263699 134.88669 0 1 3.12055,-3.13291 l 28.13384,-10.83845 1.86844,3.73684 -26.63293,10.24344 a 5.808166,5.808166 134.07894 0 0 -3.40023,3.51135 l -13.40168,38.49434 c -0.75174,1.97701 -6.03615,1.09094 -5.42976,-0.6662 z"
         id="path94"
         sodipodi:nodetypes="ccccccc"
         inkscape:original-d="m 664.62375,213.26377 16.60316,-43.61099 30.393,-11.70878 1.86844,3.73684 -29.14739,11.21054 -14.28745,41.03859 c -0.75174,1.97701 -6.03615,1.09094 -5.42976,-0.6662 z"
         inkscape:path-effect="#path-effect94" /><path
         style="fill:none;stroke:#000000;stroke-width:3.39087;stroke-linecap:round;stroke-linejoin:round;stroke-miterlimit:43.7;stroke-dasharray:none;stroke-opacity:1"
         d="m 628.78652,247.62829 c 4.07665,35.44037 5.48718,71.41397 15.69474,105.62816"
         id="path96"
         sodipodi:nodetypes="cc" /><path
         id="path98"
         style="fill:none;stroke:#000000;stroke-width:3.39087;stroke-linecap:round;stroke-linejoin:round;stroke-miterlimit:43.7;stroke-dasharray:none;stroke-opacity:1"
         d="m 605.27417,223.36673 c 0.17611,3.26279 0.39494,6.7747 0.66714,10.49651 5.52798,5.13795 10.42143,7.35704 14.97945,8.03311 6.23275,0.92445 11.77571,-3.38513 17.58135,-2.36472 6.30893,1.10887 10.92748,4.84116 16.32407,4.91702 5.35086,0.0752 10.09857,-3.58409 15.93753,-3.79564 4.984,-0.18057 9.21546,3.49091 13.03951,3.03289 4.84324,-0.58008 8.65292,-3.56065 12.87725,-6.47919 0.16895,-4.78098 0.26485,-9.25516 0.32298,-13.34906 -15.07131,7.97651 -69.44786,9.36826 -91.72928,-0.49092 z" /><path
         style="fill:none;stroke:#000000;stroke-width:3.39087;stroke-linecap:butt;stroke-miterlimit:0;stroke-dasharray:none;stroke-opacity:1"
         d="m 652.48398,373.80425 c -6.43432,-0.50672 -12.71866,-4.90462 -15.67794,-10.48131 -23.01911,-43.37891 -29.67435,-105.53895 -31.53204,-139.9564 22.28142,9.85918 76.65836,8.46742 91.72967,0.49091 -0.49833,35.09717 -3.78809,98.16439 -31.83642,142.54823 -2.39981,3.79747 -7.46542,7.80949 -12.68327,7.39857 z"
         id="path91"
         sodipodi:nodetypes="ssccss" /><path
         style="fill:none;stroke:#000000;stroke-width:3.39087;stroke-linecap:round;stroke-linejoin:round;stroke-miterlimit:43.7;stroke-dasharray:none;stroke-opacity:1"
         d="m 677.2898,247.62829 c -4.07665,35.44037 -5.48718,71.41397 -15.69474,105.62816"
         id="path97"
         sodipodi:nodetypes="cc" /></g></g></svg>
