<?xml version="1.0" encoding="UTF-8" standalone="no"?>
<!-- Created with Inkscape (http://www.inkscape.org/) -->

<svg
   width="90.068398mm"
   height="63.99432mm"
   viewBox="0 0 90.068398 63.99432"
   version="1.1"
   id="svg1"
   xml:space="preserve"
   inkscape:version="1.4.3 (0d15f75042, 2025-12-25)"
   sodipodi:docname="April Conversation Picture.svg"
   xmlns:inkscape="http://www.inkscape.org/namespaces/inkscape"
   xmlns:sodipodi="http://sodipodi.sourceforge.net/DTD/sodipodi-0.dtd"
   xmlns="http://www.w3.org/2000/svg"
   xmlns:svg="http://www.w3.org/2000/svg"><sodipodi:namedview
     id="namedview1"
     pagecolor="#ffffff"
     bordercolor="#000000"
     borderopacity="0.25"
     inkscape:showpageshadow="2"
     inkscape:pageopacity="0.0"
     inkscape:pagecheckerboard="0"
     inkscape:deskcolor="#d1d1d1"
     inkscape:document-units="mm"
     inkscape:zoom="0.18774726"
     inkscape:cx="884.16735"
     inkscape:cy="-247.67338"
     inkscape:window-width="1868"
     inkscape:window-height="1052"
     inkscape:window-x="0"
     inkscape:window-y="0"
     inkscape:window-maximized="1"
     inkscape:current-layer="layer2"><inkscape:page
       x="0"
       y="0"
       width="90.068398"
       height="63.99432"
       id="page2"
       margin="0"
       bleed="0" /></sodipodi:namedview><defs
     id="defs1"><inkscape:path-effect
       effect="fillet_chamfer"
       id="path-effect70"
       is_visible="true"
       lpeversion="1"
       nodesatellites_param="F,0,0,1,0,0.7728779,0,1 @ F,0,0,1,0,0.92017496,0,1 @ F,0,0,1,0,0,0,1 @ F,0,0,1,0,0,0,1 @ F,0,0,1,0,0,0,1 @ F,0,0,1,0,0,0,1 @ F,0,0,1,0,0,0,1 @ F,0,0,1,0,0,0,1"
       radius="0"
       unit="px"
       method="auto"
       mode="F"
       chamfer_steps="1"
       flexible="false"
       use_knot_distance="true"
       apply_no_radius="true"
       apply_with_radius="true"
       only_selected="false"
       hide_knots="false" /><inkscape:path-effect
       effect="fillet_chamfer"
       id="path-effect67"
       is_visible="true"
       lpeversion="1"
       nodesatellites_param="F,0,0,1,0,0.96906688,0,1 @ F,0,0,1,0,0.7691527,0,1 @ F,0,0,1,0,0,0,1 @ F,0,0,1,0,0,0,1 @ F,0,0,1,0,0,0,1 @ F,0,0,1,0,0,0,1"
       radius="0"
       unit="px"
       method="auto"
       mode="F"
       chamfer_steps="1"
       flexible="false"
       use_knot_distance="true"
       apply_no_radius="true"
       apply_with_radius="true"
       only_selected="false"
       hide_knots="false" /><inkscape:path-effect
       effect="fillet_chamfer"
       id="path-effect99"
       is_visible="true"
       lpeversion="1"
       nodesatellites_param="F,0,0,1,0,3.1468789,0,1 @ F,0,0,1,0,0,0,1 @ F,0,0,1,0,0,0,1 @ F,0,0,1,0,0,0,1 @ F,0,0,1,0,0,0,1 @ F,0,0,1,0,0.96360854,0,1 @ F,0,0,1,0,1.92276,0,1 @ F,0,0,1,0,0,0,1 @ F,0,0,1,0,0,0,1 @ F,0,0,1,0,0,0,1 @ F,0,0,1,0,0,0,1 @ F,0,0,1,0,0,0,1 @ F,0,0,1,0,0,0,1 @ F,0,0,1,0,0,0,1 @ F,0,0,1,0,0,0,1 @ F,0,0,1,0,0,0,1 @ F,0,0,1,0,0,0,1 @ F,0,0,1,0,0,0,1 @ F,0,0,1,0,1.4552081,0,1 @ F,0,0,1,0,2.053845,0,1 @ F,0,0,1,0,1.4994681,0,1 @ F,0,0,1,0,1.4994681,0,1 @ F,0,0,1,0,0.93639839,0,1 @ F,0,0,1,0,0,0,1"
       radius="0"
       unit="px"
       method="auto"
       mode="F"
       chamfer_steps="1"
       flexible="false"
       use_knot_distance="true"
       apply_no_radius="true"
       apply_with_radius="true"
       only_selected="false"
       hide_knots="false" /></defs><g
     inkscape:groupmode="layer"
     id="layer2"
     inkscape:label="Vectors"
     transform="translate(-13.552055,-209.37192)"><g
       id="g128"
       inkscape:label="Pizza"
       style="stroke:#000000;stroke-width:2.00094;stroke-dasharray:none;stroke-opacity:1"
       transform="matrix(0.66114911,0,0,0.66114911,-194.47442,92.432678)"
       inkscape:export-filename="Teaching Resource/Raster (Recommended)/Pizza.png"
       inkscape:export-xdpi="400"
       inkscape:export-ydpi="400"><path
         style="fill:none;fill-opacity:1;stroke:#000000;stroke-width:2.00094;stroke-linecap:round;stroke-linejoin:round;stroke-miterlimit:43.7;stroke-dasharray:none;stroke-opacity:1"
         d="m 315.96475,269.06714 c 4.51328,-7.89318 15.57012,-15.78618 20.44772,-25.2168 1.38789,-2.68341 4.95411,-3.13487 6.68279,-6.37173 1.24141,-2.32449 4.13713,-2.73101 7.05882,-5.74346 3.47673,-3.58473 5.88573,-8.60673 10.19046,-11.98873 3.13033,-2.45934 4.34681,-6.84547 6.38327,-10.26647 0.27214,-0.45715 0.75494,-1.17275 1.06538,-1.60499 2.69512,-3.75249 5.98894,-6.71346 8.86034,-9.87187 0.71377,-0.78511 1.09775,-2.29004 0.95402,-3.34206 -1.66692,-12.20065 4.62906,-16.742 14.13842,-16.78719 11.03983,-0.0525 20.83284,2.95376 28.27546,9.09299 3.54658,2.92548 7.32886,4.95825 10.18098,7.49539 2.78932,2.48129 6.55403,5.17286 7.63131,7.95023 3.24368,8.36261 10.1315,15.05178 11.83335,24.53863 2.12958,11.87117 -12.55008,14.76096 -18.31054,12.08246 -3.84078,2.67265 -8.16103,4.50624 -13.3281,4.8579 -4.9341,-0.17837 -9.26726,2.62265 -13.18648,4.06808 -3.26797,1.20525 -6.94792,1.0632 -9.96058,2.43935 l -2.38803,1.09082 c 0.14626,5.66128 -1.65545,6.87904 -8.30029,4.51444 -2.62418,-0.93384 -4.61708,-0.19709 -6.53405,0.51285 -0.75343,0.27903 -1.62737,1.09509 -2.12581,1.72277 -1.27786,1.60916 -3.46162,2.67156 -6.11927,2.9597 -1.12669,0.12215 -2.14068,0.98398 -2.30514,2.10623 -1.23414,8.42185 -3.71461,7.05217 -8.03215,2.23949 -0.55298,-0.6164 -1.51977,-0.70194 -2.24984,-0.31282 -1.71578,0.91449 -3.36452,0.97144 -4.85695,-0.12705 -0.66533,-0.48971 -1.37872,-0.43242 -1.80569,0.27696 -2.64602,4.39622 -5.97617,5.78226 -10.55002,1.69606 -0.38562,-0.34451 -0.9004,-0.28323 -1.16758,0.15957 -2.20043,3.6467 -2.95301,4.93217 -6.73925,2.6869 -3.62439,-2.14929 -8.12883,3.11548 -14.0173,2.71812 -1.72621,-0.11648 -2.58672,-2.06916 -1.72525,-3.57577 z"
         id="path99"
         sodipodi:nodetypes="cssssscsssssccsscscccccsc"
         inkscape:original-d="m 314.64239,271.91779 c 3.08662,-8.86747 16.30585,-17.5026 21.77008,-28.06745 1.38789,-2.68341 4.95411,-3.13487 6.68279,-6.37173 1.24141,-2.32449 4.13713,-2.73101 7.05882,-5.74346 3.47673,-3.58473 5.88573,-8.60673 10.19046,-11.98873 3.385,-2.65942 4.53207,-7.57188 6.89805,-11.08069 3.1808,-4.71721 7.35778,-8.1546 10.67705,-12.10766 -2.60344,-13.63009 3.83928,-18.63677 13.82633,-18.68423 11.03983,-0.0525 20.83284,2.95376 28.27546,9.09299 3.54658,2.92548 7.32886,4.95825 10.18098,7.49539 2.78932,2.48129 6.55403,5.17286 7.63131,7.95023 3.24368,8.36261 10.1315,15.05178 11.83335,24.53863 2.12958,11.87117 -12.55008,14.76096 -18.31054,12.08246 -3.84078,2.67265 -8.16103,4.50624 -13.3281,4.8579 -4.9341,-0.17837 -9.26726,2.62265 -13.18648,4.06808 -3.26797,1.20525 -6.94792,1.0632 -9.96058,2.43935 l -2.38803,1.09082 c 0.14626,5.66128 -1.65545,6.87904 -8.30029,4.51444 -3.25293,-1.15758 -5.53582,0.25186 -7.90652,0.99519 -1.2204,2.75822 -4.66694,4.4296 -8.92349,4.26845 -1.20865,11.3789 -4.00301,9.22526 -9.27761,3.15236 -2.59792,1.95671 -5.09499,2.16891 -7.19565,-0.34972 -2.88279,5.64287 -6.59046,7.65624 -11.9579,2.36667 -2.5952,4.25007 -3.17308,5.89028 -7.22458,3.48771 -4.22574,-2.5059 -9.6478,5.06662 -17.06491,1.993 z"
         inkscape:path-effect="#path-effect99" /><path
         id="path100"
         style="fill:none;fill-opacity:1;stroke:#000000;stroke-width:2.00094;stroke-linecap:round;stroke-linejoin:round;stroke-miterlimit:43.7;stroke-dasharray:none;stroke-opacity:1"
         d="m 391.74611,177.8739 c -9.50936,0.0452 -15.80559,4.58643 -14.13867,16.78709 0.0626,0.45835 0.0252,1.0025 -0.0961,1.53582 1.99696,0.19222 4.02768,0.35301 6.07922,-0.0625 5.23175,-1.05968 9.96473,0.0147 13.51132,2.41691 2.24048,1.51754 4.76419,2.68125 7.47396,3.61218 4.00889,1.37723 7.96473,5.39161 9.69553,8.35453 2.26484,3.87715 7.4602,7.02708 8.59379,11.70264 0.90363,3.72708 0.91597,6.18283 2.88613,9.21495 1.77049,2.72481 3.61922,5.21466 5.47305,7.68945 0.0442,-0.0304 0.0883,-0.0608 0.1323,-0.0915 5.76046,2.6785 20.44009,-0.21129 18.31051,-12.08246 -1.70185,-9.48685 -8.58971,-16.17595 -11.83339,-24.53856 -1.07728,-2.77737 -4.84226,-5.46913 -7.63158,-7.95042 -2.85212,-2.53714 -6.63419,-4.56967 -10.18077,-7.49515 -7.44262,-6.13923 -17.23545,-9.14548 -28.27528,-9.09298 z" /><path
         id="path56"
         style="fill:none;stroke:#000000;stroke-width:2.00094;stroke-linecap:round;stroke-linejoin:round;stroke-miterlimit:43.7;stroke-dasharray:none;stroke-opacity:1"
         d="m 336.75671,243.28644 c -0.12573,0.17701 -0.2409,0.36413 -0.34417,0.56379 -2.84892,5.50827 -7.80579,10.4919 -12.33568,15.25747 10.88919,7.24105 22.77589,-7.37935 12.86226,-15.65228 z" /><path
         style="fill:none;stroke:#000000;stroke-width:2.00094;stroke-linecap:round;stroke-linejoin:round;stroke-miterlimit:43.7;stroke-dasharray:none;stroke-opacity:1"
         d="m 364.02758,245.56228 c 1.70077,4.31471 8.27492,5.15917 14.83276,2.9317 4.75595,-1.61543 10.96466,-5.0971 8.24375,-8.83295 -7.10315,-9.75274 -24.51599,2.24941 -23.07651,5.90125 z"
         id="path57"
         sodipodi:nodetypes="ssss" /><path
         style="fill:none;stroke:#000000;stroke-width:2.00094;stroke-linecap:round;stroke-linejoin:round;stroke-miterlimit:43.7;stroke-dasharray:none;stroke-opacity:1"
         d="m 396.35474,237.28968 c -2.00914,-5.47757 17.99584,-14.35888 22.91932,-5.79211 4.88717,8.50361 -20.1556,13.32693 -22.91932,5.79211 z"
         id="path58"
         sodipodi:nodetypes="sss" /><path
         style="fill:none;stroke:#000000;stroke-width:2.00094;stroke-linecap:round;stroke-linejoin:round;stroke-miterlimit:43.7;stroke-dasharray:none;stroke-opacity:1"
         d="m 317.25817,270.42305 c 0,0 3.1827,-1.24165 4.85791,-1.49473 1.35984,-0.20543 4.00173,-0.93348 3.98597,-0.9965"
         id="path59"
         sodipodi:nodetypes="csc" /><path
         style="fill:none;stroke:#000000;stroke-width:2.00094;stroke-linecap:round;stroke-linejoin:round;stroke-miterlimit:43.7;stroke-dasharray:none;stroke-opacity:1"
         d="m 426.87232,236.85372 c -8.57065,4.33688 -18.18307,4.57457 -26.40706,9.03071"
         id="path60"
         sodipodi:nodetypes="cc" /><path
         style="fill:none;stroke:#000000;stroke-width:2.00094;stroke-linecap:round;stroke-linejoin:round;stroke-miterlimit:43.7;stroke-dasharray:none;stroke-opacity:1"
         d="m 365.92669,231.0338 5.43774,-0.68562 c 0.42145,-0.0531 0.82236,-0.43561 0.87652,-0.85689 0.16531,-1.28583 0.25644,-2.58773 1.03876,-3.34986 2.95656,6.70289 6.75138,-0.53594 2.7715,-2.61579 -4.10221,-2.14378 -12.47817,-1.58691 -15.25878,1.55702 -3.90106,4.41077 3.13436,8.29708 3.05176,2.11754 0.60014,0.95991 0.79922,1.97711 0.9648,2.9991 0.0855,0.52796 0.58671,0.90146 1.1177,0.8345 z"
         id="path61"
         sodipodi:nodetypes="cccsscc"
         inkscape:path-effect="#path-effect67"
         inkscape:original-d="m 364.96524,231.15503 7.1623,-0.90307 c 0.26981,-1.50748 0.21431,-3.19687 1.15217,-4.11053 2.95656,6.70289 6.75138,-0.53594 2.7715,-2.61579 -4.10221,-2.14378 -12.47817,-1.58691 -15.25878,1.55702 -3.90106,4.41077 3.13436,8.29708 3.05176,2.11754 0.78725,1.2592 0.88438,2.61698 1.12105,3.95483 z" /><path
         style="fill:none;stroke:#000000;stroke-width:2.00094;stroke-linecap:round;stroke-linejoin:round;stroke-miterlimit:43.7;stroke-dasharray:none;stroke-opacity:1"
         d="m 351.99078,242.62849 1.1381,-0.74565 a 1.259744,1.259744 110.62214 0 0 0.52341,-1.39089 l -0.4143,-1.4915 c 1.76291,-1.45059 5.17946,-2.75122 6.8701,-1.58541 3.58988,2.47547 5.84126,-1.35313 1.14502,-2.55427 -5.81568,-1.48746 -17.10801,2.97457 -18.71663,11.40613 -0.53884,2.82433 3.70189,2.66867 3.34697,0.044 -0.26081,-1.92877 1.01505,-4.00557 2.99467,-5.24066 l 1.86372,1.49768 a 1.0634445,1.0634445 2.7767158 0 0 1.24894,0.0606 z"
         id="path67"
         sodipodi:nodetypes="cccsssscc"
         inkscape:path-effect="#path-effect70"
         inkscape:original-d="m 351.3443,243.05205 2.55427,-1.67349 -0.66058,-2.37811 c 1.76291,-1.45059 5.17946,-2.75122 6.8701,-1.58541 3.58988,2.47547 5.84126,-1.35313 1.14502,-2.55427 -5.81568,-1.48746 -17.10801,2.97457 -18.71663,11.40613 -0.53884,2.82433 3.70189,2.66867 3.34697,0.044 -0.26081,-1.92877 1.01505,-4.00557 2.99467,-5.24066 z" /><path
         style="fill:none;stroke:#000000;stroke-width:2.00094;stroke-linecap:round;stroke-linejoin:round;stroke-miterlimit:43.7;stroke-dasharray:none;stroke-opacity:1"
         d="m 342.48188,255.22654 c 1.26495,-5.46439 8.00726,-9.19283 14.5737,-9.03071 7.51994,0.18565 10.93643,6.68619 6.72633,10.58774 -3.36854,3.12165 -10.89479,3.87591 -16.00617,2.92718 -3.20056,-0.59405 -5.84009,-2.12459 -5.29386,-4.48421 z"
         id="path70"
         sodipodi:nodetypes="sssss" /><path
         style="fill:none;stroke:#000000;stroke-width:2.00094;stroke-linecap:round;stroke-linejoin:round;stroke-miterlimit:43.7;stroke-dasharray:none;stroke-opacity:1"
         d="m 346.40556,254.47918 c 0.0332,-3.57551 5.89416,-6.31508 9.4667,-6.1658 2.65629,0.11099 6.25076,2.04217 5.85436,4.67106 -0.56561,3.75104 -6.94485,4.55406 -10.71228,4.11053 -1.83603,-0.21616 -4.62596,-0.76716 -4.60878,-2.61579 z"
         id="path71"
         sodipodi:nodetypes="sssss" /><path
         style="fill:none;stroke:#000000;stroke-width:2.00094;stroke-linecap:round;stroke-linejoin:round;stroke-miterlimit:43.7;stroke-dasharray:none;stroke-opacity:1"
         d="m 380.47314,221.28353 c 1.76151,-6.28456 16.90664,-10.08326 22.73248,-5.54298 2.63817,2.05601 2.80962,5.70003 0.68507,8.28334 -3.20425,3.89615 -13.30093,4.65834 -16.87807,3.67456 -3.38644,-0.93132 -7.48738,-3.03309 -6.53948,-6.41492 z"
         id="path72"
         sodipodi:nodetypes="sssss" /><path
         style="fill:none;stroke:#000000;stroke-width:2.00094;stroke-linecap:round;stroke-linejoin:round;stroke-miterlimit:43.7;stroke-dasharray:none;stroke-opacity:1"
         d="m 384.77053,220.03791 c 1.31812,-3.36295 10.4032,-4.98632 13.39035,-3.92368 2.11767,0.75333 5.25002,3.3396 2.42895,6.29035 -2.22627,2.3286 -8.59966,3.50224 -12.51844,1.93071 -1.67648,-0.67231 -3.96001,-2.61568 -3.30086,-4.29738 z"
         id="path73"
         sodipodi:nodetypes="sssss" /><path
         style="fill:none;stroke:#000000;stroke-width:2.00094;stroke-linecap:round;stroke-linejoin:round;stroke-miterlimit:43.7;stroke-dasharray:none;stroke-opacity:1"
         d="m 400.27844,210.01071 c -2.87954,1.0659 -5.02658,-2.82797 -1.74387,-3.48772 9.07594,-1.82405 16.55698,9.8398 17.25177,14.20001 0.50048,3.14078 -7.16981,4.52681 -3.98596,-0.68507 1.00444,-1.64425 -1.08181,-3.75716 -2.92721,-5.29387 l -2.42894,1.24562 -2.74037,-2.11755 0.68511,-2.74035 c -0.89368,-0.41496 -2.08397,-1.87123 -4.11053,-1.12107 z"
         id="path74"
         sodipodi:nodetypes="ssssccccs" /><path
         style="fill:none;stroke:#000000;stroke-width:2.00094;stroke-linecap:round;stroke-linejoin:round;stroke-miterlimit:43.7;stroke-dasharray:none;stroke-opacity:1"
         d="m 373.74681,211.00721 c 0.29444,-6.34136 10.05831,-10.29693 16.37985,-9.7158 3.15449,0.28999 7.6292,1.60743 4.5465,6.7886 -2.83917,4.77186 -10.66273,7.41104 -16.19298,6.91317 -2.42773,-0.21856 -4.84643,-1.55105 -4.73337,-3.98597 z"
         id="path75"
         sodipodi:nodetypes="sssss" /><path
         style="fill:none;stroke:#000000;stroke-width:2.00094;stroke-linecap:round;stroke-linejoin:round;stroke-miterlimit:43.7;stroke-dasharray:none;stroke-opacity:1"
         d="m 329.94129,257.27669 1.32117,-0.26423"
         id="path76" /><path
         style="fill:none;stroke:#000000;stroke-width:2.00094;stroke-linecap:round;stroke-linejoin:round;stroke-miterlimit:43.7;stroke-dasharray:none;stroke-opacity:1"
         d="m 334.26082,252.76645 0.68509,-0.6228"
         id="path77" /><path
         style="fill:none;stroke:#000000;stroke-width:2.00094;stroke-linecap:round;stroke-linejoin:round;stroke-miterlimit:43.7;stroke-dasharray:none;stroke-opacity:1"
         d="m 337.49943,248.96733 0.12456,0.80965"
         id="path78" /><path
         style="fill:none;stroke:#000000;stroke-width:2.00094;stroke-linecap:round;stroke-linejoin:round;stroke-miterlimit:43.7;stroke-dasharray:none;stroke-opacity:1"
         d="m 335.53757,256.3476 0.5294,-0.71623"
         id="path79" /><path
         style="fill:none;stroke:#000000;stroke-width:2.00094;stroke-linecap:round;stroke-linejoin:round;stroke-miterlimit:43.7;stroke-dasharray:none;stroke-opacity:1"
         d="m 370.97533,241.21337 0.93422,-0.40482"
         id="path80" /><path
         style="fill:none;stroke:#000000;stroke-width:2.00094;stroke-linecap:round;stroke-linejoin:round;stroke-miterlimit:43.7;stroke-dasharray:none;stroke-opacity:1"
         d="m 376.45604,243.79802 1.15218,-0.43596"
         id="path81" /><path
         style="fill:none;stroke:#000000;stroke-width:2.00094;stroke-linecap:round;stroke-linejoin:round;stroke-miterlimit:43.7;stroke-dasharray:none;stroke-opacity:1"
         d="m 380.72226,239.00241 -1.49473,-0.0623"
         id="path82" /><path
         style="fill:none;stroke:#000000;stroke-width:2.00094;stroke-linecap:round;stroke-linejoin:round;stroke-miterlimit:43.7;stroke-dasharray:none;stroke-opacity:1"
         d="m 369.79201,246.22698 1.12104,0.43596"
         id="path83" /><path
         style="fill:none;stroke:#000000;stroke-width:2.00094;stroke-linecap:round;stroke-linejoin:round;stroke-miterlimit:43.7;stroke-dasharray:none;stroke-opacity:1"
         d="m 376.36262,247.03662 0.96536,-0.40482"
         id="path84" /><path
         style="fill:none;stroke:#000000;stroke-width:2.00094;stroke-linecap:round;stroke-linejoin:round;stroke-miterlimit:43.7;stroke-dasharray:none;stroke-opacity:1"
         d="m 409.68281,234.92302 1.24563,-0.37369"
         id="path85" /><path
         style="fill:none;stroke:#000000;stroke-width:2.00094;stroke-linecap:round;stroke-linejoin:round;stroke-miterlimit:43.7;stroke-dasharray:none;stroke-opacity:1"
         d="m 403.45473,232.74319 1.55702,0.0623"
         id="path86" /><path
         style="fill:none;stroke:#000000;stroke-width:2.00094;stroke-linecap:round;stroke-linejoin:round;stroke-miterlimit:43.7;stroke-dasharray:none;stroke-opacity:1"
         d="m 410.43018,231.24845 1.49474,0.93421"
         id="path87" /><path
         style="fill:none;stroke:#000000;stroke-width:2.00094;stroke-linecap:round;stroke-linejoin:round;stroke-miterlimit:43.7;stroke-dasharray:none;stroke-opacity:1"
         d="m 416.90739,232.74319 -1.37017,0.68509"
         id="path88" /><path
         style="fill:none;stroke:#000000;stroke-width:2.00094;stroke-linecap:round;stroke-linejoin:round;stroke-miterlimit:43.7;stroke-dasharray:none;stroke-opacity:1"
         d="m 405.5723,237.85021 -1.93072,-0.0623"
         id="path95" /><path
         style="fill:none;stroke:#000000;stroke-width:2.00094;stroke-linecap:round;stroke-linejoin:round;stroke-miterlimit:43.7;stroke-dasharray:none;stroke-opacity:1"
         d="m 415.41266,236.29319 -0.93422,0.37369"
         id="path101" /><path
         style="fill:none;stroke:#000000;stroke-width:2.00094;stroke-linecap:round;stroke-linejoin:round;stroke-miterlimit:43.7;stroke-dasharray:none;stroke-opacity:1"
         d="m 385.48675,231.9024 c 0.64643,-1.77518 3.79615,-2.47099 5.44957,-1.55702 1.173,0.64841 1.76252,2.68461 1.12104,3.86141 -0.69475,1.27452 -2.80593,1.73425 -4.1728,1.24561 -1.34464,-0.48069 -2.88642,-2.20822 -2.39781,-3.55 z"
         id="path102"
         sodipodi:nodetypes="sssss" /><path
         style="fill:none;stroke:#000000;stroke-width:2.00094;stroke-linecap:round;stroke-linejoin:round;stroke-miterlimit:43.7;stroke-dasharray:none;stroke-opacity:1"
         d="m 366.61568,216.48791 c 0.88159,-1.33383 4.11927,-1.58587 5.41843,-0.65394 0.9576,0.68692 0.82643,2.44036 -0.15572,3.02061 -1.29808,0.7669 -3.5178,1.54592 -4.73333,0.65395 -0.82414,-0.60476 -1.09303,-2.16784 -0.52938,-3.02062 z"
         id="path103"
         sodipodi:nodetypes="sssss" /><path
         style="fill:none;stroke:#000000;stroke-width:2.00094;stroke-linecap:round;stroke-linejoin:round;stroke-miterlimit:43.7;stroke-dasharray:none;stroke-opacity:1"
         d="m 416.258,225.34831 c -0.22187,-0.57618 0.35265,-1.30965 0.8808,-1.62945 0.91675,-0.5551 2.3132,-0.62332 3.21484,-0.044 1.1336,0.72836 2.32575,2.71156 1.40927,3.69929 -1.37688,1.48394 -4.77748,-0.13673 -5.50491,-2.02584 z"
         id="path104"
         sodipodi:nodetypes="sssss" /><path
         style="fill:none;stroke:#000000;stroke-width:2.00094;stroke-linecap:round;stroke-linejoin:round;stroke-miterlimit:43.7;stroke-dasharray:none;stroke-opacity:1"
         d="m 329.77661,263.94585 c 1.60299,-0.98725 2.97276,-0.42833 4.23508,-0.80965"
         id="path105"
         sodipodi:nodetypes="cc" /><path
         style="fill:none;stroke:#000000;stroke-width:2.00094;stroke-linecap:round;stroke-linejoin:round;stroke-miterlimit:43.7;stroke-dasharray:none;stroke-opacity:1"
         d="m 366.14856,237.60109 c 1.11045,-1.46801 2.59009,-1.33624 3.92369,-1.83728"
         id="path106"
         sodipodi:nodetypes="cc" /><path
         style="fill:none;stroke:#000000;stroke-width:2.00094;stroke-linecap:round;stroke-linejoin:round;stroke-miterlimit:43.7;stroke-dasharray:none;stroke-opacity:1"
         d="m 352.69593,233.11687 c 1.292,-0.0127 1.42761,-1.38226 2.89605,-1.21447"
         id="path107"
         sodipodi:nodetypes="cc" /><path
         style="fill:none;stroke:#000000;stroke-width:2.00094;stroke-linecap:round;stroke-linejoin:round;stroke-miterlimit:43.7;stroke-dasharray:none;stroke-opacity:1"
         d="m 397.72492,243.26864 c 1.67772,-0.23218 2.10141,0.41379 3.17632,0.0311"
         id="path108"
         sodipodi:nodetypes="cc" /><path
         style="fill:none;stroke:#000000;stroke-width:2.00094;stroke-linecap:round;stroke-linejoin:round;stroke-miterlimit:43.7;stroke-dasharray:none;stroke-opacity:1"
         d="m 377.32798,210.50896 0.2491,-0.84079"
         id="path109" /><path
         style="fill:none;stroke:#000000;stroke-width:2.00094;stroke-linecap:round;stroke-linejoin:round;stroke-miterlimit:43.7;stroke-dasharray:none;stroke-opacity:1"
         d="m 381.99904,205.33966 1.18332,-0.40483"
         id="path110" /><path
         style="fill:none;stroke:#000000;stroke-width:2.00094;stroke-linecap:round;stroke-linejoin:round;stroke-miterlimit:43.7;stroke-dasharray:none;stroke-opacity:1"
         d="m 383.18236,209.0765 1.40131,0.1557"
         id="path111" /><path
         style="fill:none;stroke:#000000;stroke-width:2.00094;stroke-linecap:round;stroke-linejoin:round;stroke-miterlimit:43.7;stroke-dasharray:none;stroke-opacity:1"
         d="m 388.72535,205.99361 0.56052,0.80964"
         id="path112" /><path
         style="fill:none;stroke:#000000;stroke-width:2.00094;stroke-linecap:round;stroke-linejoin:round;stroke-miterlimit:43.7;stroke-dasharray:none;stroke-opacity:1"
         d="m 390.06438,203.44009 1.15221,0.62281"
         id="path113" /><path
         style="fill:none;stroke:#000000;stroke-width:2.00094;stroke-linecap:round;stroke-linejoin:round;stroke-miterlimit:43.7;stroke-dasharray:none;stroke-opacity:1"
         d="m 392.02621,207.20808 -0.59166,0.71623"
         id="path114" /><path
         style="fill:none;stroke:#000000;stroke-width:2.00094;stroke-linecap:round;stroke-linejoin:round;stroke-miterlimit:43.7;stroke-dasharray:none;stroke-opacity:1"
         d="m 377.39026,219.50853 c 0.76479,-1.35735 1.82427,-1.09399 2.74034,-1.6193"
         id="path115"
         sodipodi:nodetypes="cc" /><path
         style="fill:none;stroke:#000000;stroke-width:2.00094;stroke-linecap:round;stroke-linejoin:round;stroke-miterlimit:43.7;stroke-dasharray:none;stroke-opacity:1"
         d="m 379.13302,200.29004 c 1.40961,-0.73816 2.62119,-0.13562 3.61119,-0.66059"
         id="path116"
         sodipodi:nodetypes="cc" /><path
         style="fill:none;stroke:#000000;stroke-width:2.00094;stroke-linecap:round;stroke-linejoin:round;stroke-miterlimit:43.7;stroke-dasharray:none;stroke-opacity:1"
         d="m 431.42572,238.78129 c -0.88249,-3.11566 0.43505,-6.2384 1.67468,-9.02758 1.49527,-3.36438 5.10991,-5.53765 9.21755,-4.11053 1.95841,0.68041 4.59331,-0.10493 5.66753,2.49123"
         id="path117"
         sodipodi:nodetypes="cssc" /><path
         style="fill:none;stroke:#000000;stroke-width:2.00094;stroke-linecap:round;stroke-linejoin:round;stroke-miterlimit:43.7;stroke-dasharray:none;stroke-opacity:1"
         d="m 434.64434,237.56917 1.38724,0.0881"
         id="path118" /><path
         style="fill:none;stroke:#000000;stroke-width:2.00094;stroke-linecap:round;stroke-linejoin:round;stroke-miterlimit:43.7;stroke-dasharray:none;stroke-opacity:1"
         d="m 437.46285,233.82585 0.61655,-0.85877"
         id="path119" /><path
         style="fill:none;stroke:#000000;stroke-width:2.00094;stroke-linecap:round;stroke-linejoin:round;stroke-miterlimit:43.7;stroke-dasharray:none;stroke-opacity:1"
         d="m 440.06116,229.11366 1.62946,0.50645"
         id="path120" /><path
         style="fill:none;stroke:#000000;stroke-width:2.00094;stroke-linecap:round;stroke-linejoin:round;stroke-miterlimit:43.7;stroke-dasharray:none;stroke-opacity:1"
         d="m 428.61618,229.28661 c -0.70367,-1.43182 1.68604,-4.67661 2.17983,-4.14167"
         id="path121"
         sodipodi:nodetypes="cc" /><path
         style="fill:none;stroke:#000000;stroke-width:2.00094;stroke-linecap:round;stroke-linejoin:round;stroke-miterlimit:43.7;stroke-dasharray:none;stroke-opacity:1"
         d="m 423.74465,215.74777 c 0.5684,-2.24372 2.08534,-2.47182 3.56719,-2.77446"
         id="path122"
         sodipodi:nodetypes="cc" /><path
         style="fill:none;stroke:#000000;stroke-width:2.00094;stroke-linecap:round;stroke-linejoin:round;stroke-miterlimit:43.7;stroke-dasharray:none;stroke-opacity:1"
         d="m 423.43638,210.72731 c 1.10099,-0.49648 2.20197,-1.73956 3.30296,-0.61654"
         id="path123"
         sodipodi:nodetypes="cc" /><path
         style="fill:none;stroke:#000000;stroke-width:2.00094;stroke-linecap:round;stroke-linejoin:round;stroke-miterlimit:43.7;stroke-dasharray:none;stroke-opacity:1"
         d="m 408.50711,200.90658 c 0.99872,-1.05296 1.93919,-2.19006 3.96354,-1.76156"
         id="path124"
         sodipodi:nodetypes="cc" /><path
         style="fill:none;stroke:#000000;stroke-width:2.00094;stroke-linecap:round;stroke-linejoin:round;stroke-miterlimit:43.7;stroke-dasharray:none;stroke-opacity:1"
         d="m 405.07205,199.76157 c 0.25215,-1.32583 0.83436,-2.12357 1.67349,-2.51024"
         id="path125"
         sodipodi:nodetypes="cc"
         inkscape:label="path125" /><path
         style="fill:none;stroke:#000000;stroke-width:2.00094;stroke-linecap:round;stroke-linejoin:round;stroke-miterlimit:43.7;stroke-dasharray:none;stroke-opacity:1"
         d="m 382.92037,193.59609 c -0.41424,-1.73643 0.42175,-2.97276 1.76157,-4.00757"
         id="path126"
         sodipodi:nodetypes="cc" /><path
         style="fill:none;stroke:#000000;stroke-width:2.00094;stroke-linecap:round;stroke-linejoin:round;stroke-miterlimit:43.7;stroke-dasharray:none;stroke-opacity:1"
         d="m 392.49334,251.42742 c -0.16186,-1.14466 0.14685,-2.07213 0.74736,-2.86492"
         id="path128"
         sodipodi:nodetypes="cc" /></g></g></svg>
