<?xml version="1.0" encoding="UTF-8" standalone="no"?>
<!-- Created with Inkscape (http://www.inkscape.org/) -->

<svg
   width="60.607193mm"
   height="59.532822mm"
   viewBox="0 0 60.607193 59.532822"
   version="1.1"
   id="svg1"
   xml:space="preserve"
   inkscape:version="1.4.3 (0d15f75042, 2025-12-25)"
   sodipodi:docname="April Conversation Picture.svg"
   xmlns:inkscape="http://www.inkscape.org/namespaces/inkscape"
   xmlns:sodipodi="http://sodipodi.sourceforge.net/DTD/sodipodi-0.dtd"
   xmlns="http://www.w3.org/2000/svg"
   xmlns:svg="http://www.w3.org/2000/svg"><sodipodi:namedview
     id="namedview1"
     pagecolor="#ffffff"
     bordercolor="#000000"
     borderopacity="0.25"
     inkscape:showpageshadow="2"
     inkscape:pageopacity="0.0"
     inkscape:pagecheckerboard="0"
     inkscape:deskcolor="#d1d1d1"
     inkscape:document-units="mm"
     inkscape:zoom="0.18774726"
     inkscape:cx="884.16735"
     inkscape:cy="-247.67338"
     inkscape:window-width="1868"
     inkscape:window-height="1052"
     inkscape:window-x="0"
     inkscape:window-y="0"
     inkscape:window-maximized="1"
     inkscape:current-layer="layer2"><inkscape:page
       x="0"
       y="0"
       width="60.607193"
       height="59.532822"
       id="page2"
       margin="0"
       bleed="0" /></sodipodi:namedview><defs
     id="defs1" /><g
     inkscape:groupmode="layer"
     id="layer2"
     inkscape:label="Vectors"
     transform="translate(-111.76912,-26.920053)"><g
       id="g18"
       inkscape:label="Salad"
       style="stroke:#000000;stroke-width:1.65591;stroke-dasharray:none;stroke-opacity:1"
       transform="matrix(0.79890603,0,0,0.79890603,-155.29189,50.256522)"
       inkscape:export-filename="Teaching Resource/Raster (Recommended)/Salad.png"
       inkscape:export-xdpi="400"
       inkscape:export-ydpi="400"><path
         style="fill:none;stroke:#000000;stroke-width:1.65591;stroke-miterlimit:12.8;stroke-dasharray:none;stroke-opacity:1"
         d="M 336.45907,5.1966192 C 341.42583,56.352061 404.98915,53.005205 407.89057,4.2277581 396.8194,14.190709 357.62348,17.40689 336.45907,5.1966192 Z"
         id="path1"
         sodipodi:nodetypes="ccc" /><path
         id="path2"
         style="fill:none;stroke:#000000;stroke-width:1.65591;stroke-miterlimit:12.8;stroke-dasharray:none;stroke-opacity:1"
         d="m 385.3155,39.461674 c -8.4698,3.593705 -18.08179,3.685509 -26.54618,0.101803 l 0.23771,3.506762 c 8.34244,1.626698 16.96897,2.117643 26.24749,0 z" /><path
         id="path3"
         style="fill:none;stroke:#000000;stroke-width:1.65591;stroke-miterlimit:12.8;stroke-dasharray:none;stroke-opacity:1"
         d="M 407.89035,4.2276489 C 396.81918,14.1906 357.62346,17.406853 336.45905,5.196582 c 0.33041,3.4030879 0.92032,6.564951 1.73426,9.48831 16.9181,10.452777 51.51444,9.990945 68.016,-0.05013 0.8808,-3.199624 1.45875,-6.6700871 1.68104,-10.4071171 z" /><path
         id="path4"
         style="fill:none;stroke:#000000;stroke-width:1.65591;stroke-miterlimit:12.8;stroke-dasharray:none;stroke-opacity:1"
         d="m 346.59383,-15.052311 c -4.93145,0.178662 -10.03609,5.4761456 -5.64255,11.0887286 -5.30561,0.7294739 -7.54988,3.70631364 -4.40438,8.8960979 l 0.17105,0.4123779 c 4.16869,2.3640456 9.06141,4.0741695 14.25029,5.3252566 l 0.0238,-0.188619 c 1.03748,-4.8503277 4.37881,-6.8747859 7.81865,-6.9561648 1.40911,-0.033337 2.8348,0.2595464 4.12533,0.8175212 -0.21809,-0.094296 -0.44001,-0.1810808 -0.66508,-0.2599325 l 0.0832,-0.2077392 c 0.32568,-0.9182745 0.69797,-1.7425483 1.10898,-2.4784017 7e-5,-1.323e-4 -8e-5,-3.845e-4 0,-5.168e-4 l 0.12402,-0.69143066 c -0.52775,-3.46610484 -2.84135,-3.52870794 -4.7563,-2.99464924 1.51254,-3.86837 -1.10272,-6.8179396 -5.63686,-6.5179484 -0.74469,-4.6161499 -3.64125,-6.3517779 -6.60012,-6.2445799 z m 5.55832,25.99893 c 3.03663,0.679455 6.13834,1.248429 9.31674,1.591634 -3.17601,-0.342996 -6.28227,-0.912943 -9.31674,-1.591634 z" /><path
         id="path5"
         style="fill:none;stroke:#000000;stroke-width:1.65591;stroke-miterlimit:12.8;stroke-dasharray:none;stroke-opacity:1"
         d="m 358.81066,3.5253662 c -3.43984,0.081379 -6.78117,2.1058375 -7.81865,6.9561648 l -0.0331,0.260966 c 5.3149,1.278946 10.98274,2.008742 16.63258,2.258777 l 0.047,-0.141594 c 1.43713,-5.4220071 -3.80044,-9.4532521 -8.82788,-9.3343138 z" /><path
         id="path6"
         style="fill:none;stroke:#000000;stroke-width:1.65591;stroke-miterlimit:12.8;stroke-dasharray:none;stroke-opacity:1"
         d="m 370.98562,-3.7181193 c -3.37887,0.1685363 -6.76973,2.3438662 -8.63151,7.593335 l -0.0832,0.2077392 c 3.64493,1.2769918 6.47001,4.617684 5.36763,8.7767251 l -0.047,0.141594 c 3.06023,0.135522 6.1152,0.130236 9.1059,-0.0047 l 0.0134,-0.04909 c 9.08467,-7.6936159 1.70829,-17.0364293 -5.72524,-16.6656493 z m -11.97446,15.9499313 -0.003,0.0067 c 0.0239,0.0032 0.0485,0.003 0.0723,0.0062 -0.0237,-0.0032 -0.046,-0.0097 -0.0698,-0.01292 z" /><path
         id="path7"
         style="fill:none;stroke:#000000;stroke-width:1.65591;stroke-miterlimit:12.8;stroke-dasharray:none;stroke-opacity:1"
         d="m 390.47642,-12.18737 c -2.74143,-0.04912 -4.59451,1.959314 -5.57433,4.9650718 -3.03628,0.01726 -5.88386,0.5809018 -7.05952,5.9939494 3.67651,3.2372475 4.89758,9.0697977 -1.13171,14.1758788 l -0.0134,0.04909 c 13.04725,-0.588435 24.87149,-3.6440234 30.57746,-8.2454918 3e-4,-2.394e-4 7.4e-4,-2.773e-4 10e-4,-5.168e-4 l 0.26251,-0.3467488 c 2.53953,-4.27911983 3.06356,-7.9751041 -3.25923,-9.6888143 0.95491,-5.1416383 -3.66238,-9.1118973 -9.51208,-5.4606483 -1.6145,-0.971984 -3.04459,-1.419446 -4.2907,-1.441773 z" /><path
         id="path8"
         style="fill:none;stroke:#000000;stroke-width:1.65591;stroke-miterlimit:12.8;stroke-dasharray:none;stroke-opacity:1"
         d="m 393.12965,-4.8432857 c -7.06067,-0.350116 -14.49784,7.3170775 -6.55428,16.7340327 l 0.35657,0.103353 c 5.54502,-0.856287 10.54799,-2.18435 14.52934,-3.8933025 1.45239,-8.18188279 -3.50064,-12.7045302 -8.33163,-12.9440832 z"
         sodipodi:nodetypes="scccs" /><path
         id="path9"
         style="fill:none;stroke:#000000;stroke-width:1.65591;stroke-miterlimit:12.8;stroke-dasharray:none;stroke-opacity:1"
         d="m 377.50047,-28.377596 c -2.37921,0.08801 -4.95832,1.345345 -7.30756,4.155819 -4.9836,-2.825366 -7.82543,-0.282388 -9.77667,4.580082 -7.03017,-5.060498 -10.52051,-2.373391 -10.73784,5.244124 1.68655,0.868681 3.03997,2.641884 3.51555,5.5898399 4.53414,-0.2999912 7.1494,2.6495784 5.63686,6.5179484 1.91495,-0.5340587 4.22855,-0.4714556 4.7563,2.99464924 l -0.12402,0.69143066 v 5.168e-4 c -0.23265,0.4165255 -0.44937,0.8693888 -0.65578,1.3435872 1.92678,-4.4252578 5.05597,-6.3027798 8.17831,-6.4585205 2.74391,-0.1368643 5.47403,1.0554615 7.37733,2.99413248 -0.16908,-0.17228519 -0.33869,-0.34437848 -0.52038,-0.50436198 1.17566,-5.4130476 4.02324,-5.9766892 7.05952,-5.9939494 0.97982,-3.0057578 2.8329,-5.0141908 5.57433,-4.9650718 1.24611,0.02233 2.6762,0.469789 4.2907,1.441773 1.04335,-0.651234 2.04762,-1.060052 2.98793,-1.262972 2.298,-8.099302 -4.17087,-10.890081 -11.79618,-6.752043 -0.10182,-5.690271 -3.91626,-9.784997 -8.4584,-9.616984 z m 0.98392,27.77091468 c 0.22802,0.2404762 0.43024,0.50180778 0.63149,0.76326091 l 0.0186,-0.006718 c -0.20233,-0.2631847 -0.42063,-0.51460309 -0.65009,-0.75654291 z M 352.15215,10.946619 c 3.03447,0.678691 6.14073,1.248638 9.31674,1.591634 -3.1784,-0.343205 -6.28011,-0.912179 -9.31674,-1.591634 z" /><path
         style="fill:none;stroke:#000000;stroke-width:1.65591;stroke-linecap:round;stroke-miterlimit:12.8;stroke-dasharray:none;stroke-opacity:1"
         d="m 373.37182,-3.8544905 c -0.71734,-6.7320795 0.0545,-12.6025995 3.98728,-18.5043005"
         id="path10"
         sodipodi:nodetypes="cc" /><path
         style="fill:none;stroke:#000000;stroke-width:1.65591;stroke-linecap:round;stroke-miterlimit:12.8;stroke-dasharray:none;stroke-opacity:1"
         d="m 372.88813,-6.0488438 4.74753,-3.8599638"
         id="path11" /><path
         style="fill:none;stroke:#000000;stroke-width:1.65591;stroke-linecap:round;stroke-miterlimit:12.8;stroke-dasharray:none;stroke-opacity:1"
         d="M 372.86292,-7.4868296 363.9395,-16.338523"
         id="path12" /><path
         style="fill:none;stroke:#000000;stroke-width:1.65591;stroke-linecap:round;stroke-miterlimit:12.8;stroke-dasharray:none;stroke-opacity:1"
         d="m 373.69742,-14.240712 5.92002,-3.330907"
         id="path13" /><path
         style="fill:none;stroke:#000000;stroke-width:1.65591;stroke-linecap:round;stroke-miterlimit:12.8;stroke-dasharray:none;stroke-opacity:1"
         d="m 367.84126,-2.9300638 -3.19714,-4.8648648"
         id="path14" /><path
         style="fill:none;stroke:#000000;stroke-width:1.65591;stroke-linecap:round;stroke-miterlimit:12.8;stroke-dasharray:none;stroke-opacity:1"
         d="m 355.21794,4.0176904 c -1.59489,-5.1529455 -5.52929,-8.777016 -9.46632,-12.799277"
         id="path15"
         sodipodi:nodetypes="cc" /><path
         style="fill:none;stroke:#000000;stroke-width:1.65591;stroke-linecap:round;stroke-miterlimit:12.8;stroke-dasharray:none;stroke-opacity:1"
         d="m 354.33616,1.9335829 1.38038,-5.4835861"
         id="path16" /><path
         style="fill:none;stroke:#000000;stroke-width:1.65591;stroke-linecap:round;stroke-miterlimit:12.8;stroke-dasharray:none;stroke-opacity:1"
         d="m 351.83561,-2.0726313 -6.05285,-1.1971085"
         id="path17" /><path
         style="fill:none;stroke:#000000;stroke-width:1.65591;stroke-linecap:round;stroke-miterlimit:12.8;stroke-dasharray:none;stroke-opacity:1"
         d="M 352.92432,6.2776941 342.23277,3.2697398"
         id="path18" /></g></g></svg>
