<?xml version="1.0" encoding="UTF-8" standalone="no"?>
<!-- Created with Inkscape (http://www.inkscape.org/) -->

<svg
   width="100.00667mm"
   height="60.391407mm"
   viewBox="0 0 100.00667 60.391407"
   version="1.1"
   id="svg1"
   xml:space="preserve"
   inkscape:version="1.4.3 (0d15f75042, 2025-12-25)"
   sodipodi:docname="April Conversation Picture.svg"
   xmlns:inkscape="http://www.inkscape.org/namespaces/inkscape"
   xmlns:sodipodi="http://sodipodi.sourceforge.net/DTD/sodipodi-0.dtd"
   xmlns="http://www.w3.org/2000/svg"
   xmlns:svg="http://www.w3.org/2000/svg"><sodipodi:namedview
     id="namedview1"
     pagecolor="#ffffff"
     bordercolor="#000000"
     borderopacity="0.25"
     inkscape:showpageshadow="2"
     inkscape:pageopacity="0.0"
     inkscape:pagecheckerboard="0"
     inkscape:deskcolor="#d1d1d1"
     inkscape:document-units="mm"
     inkscape:zoom="0.18774726"
     inkscape:cx="884.16735"
     inkscape:cy="-247.67338"
     inkscape:window-width="1868"
     inkscape:window-height="1052"
     inkscape:window-x="0"
     inkscape:window-y="0"
     inkscape:window-maximized="1"
     inkscape:current-layer="layer2"><inkscape:page
       x="0"
       y="0"
       width="100.00667"
       height="60.391407"
       id="page2"
       margin="0"
       bleed="0" /></sodipodi:namedview><defs
     id="defs1"><inkscape:path-effect
       effect="fillet_chamfer"
       id="path-effect63"
       is_visible="true"
       lpeversion="1"
       nodesatellites_param="F,0,0,1,0,0,0,1 @ F,0,0,1,0,0,0,1 @ F,0,0,1,0,0,0,1 @ F,0,0,1,0,0,0,1 | F,0,0,1,0,0,0,1 @ F,0,0,1,0,0,0,1 @ F,0,0,1,0,0,0,1 @ F,0,0,1,0,0,0,1 @ F,0,0,1,0,0,0,1 @ F,0,0,1,0,0,0,1 @ F,0,0,1,0,0,0,1 @ F,0,0,1,0,0,0,1 @ F,0,0,1,0,3.3238055,0,1 @ F,0,0,1,0,0,0,1 @ F,0,0,1,0,0,0,1"
       radius="0"
       unit="px"
       method="auto"
       mode="F"
       chamfer_steps="1"
       flexible="false"
       use_knot_distance="true"
       apply_no_radius="true"
       apply_with_radius="true"
       only_selected="false"
       hide_knots="false" /><inkscape:path-effect
       effect="fillet_chamfer"
       id="path-effect57"
       is_visible="true"
       lpeversion="1"
       nodesatellites_param="F,0,0,1,0,0,0,1 @ F,0,0,1,0,4.1529427,0,1 @ F,0,0,1,0,3.5215436,0,1 @ F,0,0,1,0,0,0,1"
       radius="0"
       unit="px"
       method="auto"
       mode="F"
       chamfer_steps="1"
       flexible="false"
       use_knot_distance="true"
       apply_no_radius="true"
       apply_with_radius="true"
       only_selected="false"
       hide_knots="false" /><inkscape:path-effect
       effect="fillet_chamfer"
       id="path-effect55"
       is_visible="true"
       lpeversion="1"
       nodesatellites_param="F,0,0,1,0,0,0,1 @ F,0,0,1,0,2.1435833,0,1 @ F,0,0,1,0,0,0,1"
       radius="0"
       unit="px"
       method="auto"
       mode="F"
       chamfer_steps="1"
       flexible="false"
       use_knot_distance="true"
       apply_no_radius="true"
       apply_with_radius="true"
       only_selected="false"
       hide_knots="false" /></defs><g
     inkscape:groupmode="layer"
     id="layer2"
     inkscape:label="Vectors"
     transform="translate(-105.03081,-208.68836)"><g
       id="g89"
       inkscape:label="Sandwhich"
       style="stroke:#000000;stroke-width:5.47263;stroke-dasharray:none;stroke-opacity:1"
       transform="matrix(0.24173307,0,0,0.24173307,-103.63864,206.32712)"
       inkscape:export-filename="Teaching Resource/Raster (Recommended)/Sandwich.png"
       inkscape:export-xdpi="400"
       inkscape:export-ydpi="400"><path
         style="fill:none;stroke:#000000;stroke-width:5.47263;stroke-linecap:round;stroke-linejoin:bevel;stroke-miterlimit:12.8;stroke-dasharray:none;stroke-opacity:1"
         d="M 865.95163,182.35805 C 924.41701,120.79578 1000.3094,67.946987 1072.5105,13.252624 c 0.9435,-0.714745 2.5606,-0.854104 3.6097,-0.305477 68.7108,35.933267 120.9509,83.81247 188.4283,113.607353 z"
         id="path44"
         sodipodi:nodetypes="cccc"
         inkscape:path-effect="#path-effect55"
         inkscape:original-d="m 865.95163,182.35805 c 58.92658,-62.0479 135.55617,-115.244316 208.26687,-170.400145 69.652,36.039517 122.2315,84.527449 190.33,114.596595 z" /><path
         style="fill:none;stroke:#000000;stroke-width:5.47263;stroke-linecap:round;stroke-linejoin:bevel;stroke-miterlimit:12.8;stroke-dasharray:none;stroke-opacity:1"
         d="m 865.95163,182.35805 1.13982,15.55172 c 0.16765,2.28747 2.14485,3.88342 4.41664,3.56779 130.67271,-18.1552 253.35631,-27.43346 392.32641,-54.80797 1.9081,-0.37586 3.2341,-2.2447 2.9625,-4.17054 l -2.2485,-15.94455 z"
         id="path45"
         sodipodi:nodetypes="ccccc"
         inkscape:path-effect="#path-effect57"
         inkscape:original-d="m 865.95163,182.35805 1.44338,19.69355 c 133.29789,-18.6885 258.03979,-27.8703 399.89379,-56.06551 l -2.7403,-19.43159 z" /><path
         id="path47"
         style="fill:none;stroke:#000000;stroke-width:5.47263;stroke-linecap:butt;stroke-miterlimit:12.8;stroke-dasharray:none;stroke-opacity:1"
         d="m 1068.466,177.04346 c -53.4024,6.68055 -106.05007,12.52211 -159.67134,19.44584 21.22067,13.2008 37.40447,29.11412 51.45939,46.17341 2.57572,3.12631 7.2563,3.78263 10.5239,1.38854 31.89465,-23.36847 63.23455,-47.59404 97.68805,-67.00779 z" /><path
         id="path48"
         style="fill:none;stroke:#000000;stroke-width:5.47263;stroke-linecap:butt;stroke-miterlimit:12.8;stroke-dasharray:none;stroke-opacity:1"
         d="m 913.76748,195.85006 c -1.65664,0.21213 -3.31389,0.42508 -4.97231,0.63924 1.69273,-0.21857 3.34969,-0.39745 5.04052,-0.61392 l -0.0677,-0.0253 z m -4.97231,0.63924 c -1.34683,0.17392 -2.69453,0.34869 -4.04264,0.524 -8.45558,6.03353 -18.40414,12.82919 -24.06158,21.23074 -1.24217,1.84469 -0.38229,4.20197 1.65519,5.09788 l 9.73946,4.28243 c 2.28355,1.00412 6.16042,2.11584 8.64288,1.91564 5.1989,-0.41925 9.08502,-2.6823 14.08907,-4.84621 1.64706,-0.71224 4.3999,-0.76729 6.15569,-0.39739 4.9944,1.05218 9.6311,0.85202 14.17691,0.33401 1.82348,-0.20779 4.14033,-1.64551 5.18132,-3.15749 l 0.17443,-0.25335 c -9.30891,-8.92262 -19.70334,-17.26078 -31.71073,-24.73027 z"
         inkscape:path-effect="#path-effect63"
         inkscape:original-d="m 913.76748,195.85006 c -1.65664,0.21213 -3.31389,0.42508 -4.97231,0.63924 1.69273,-0.21857 3.34969,-0.39745 5.04052,-0.61392 l -0.0677,-0.0253 z m -4.97231,0.63924 c -1.34683,0.17392 -2.69453,0.34869 -4.04264,0.524 -8.45558,6.03353 -18.40414,12.82919 -24.06158,21.23074 -1.24217,1.84469 -0.38229,4.20197 1.65519,5.09788 l 9.73946,4.28243 c 2.28355,1.00412 6.16042,2.11584 8.64288,1.91564 5.1989,-0.41925 9.08502,-2.6823 14.08907,-4.84621 1.64706,-0.71224 4.3999,-0.76729 6.15569,-0.39739 6.20613,1.30746 11.85992,0.68117 17.47335,-0.0858 l 2.05931,-2.99103 c -9.30891,-8.92262 -19.70334,-17.26078 -31.71073,-24.73027 z" /><path
         id="path49"
         style="fill:none;stroke:#000000;stroke-width:5.47263;stroke-linecap:butt;stroke-miterlimit:12.8;stroke-dasharray:none;stroke-opacity:1"
         d="m 1100.0026,172.99926 c -10.55,1.38998 -21.0578,2.73323 -31.5366,4.0442 -9.4312,5.31429 -18.6292,10.98938 -27.6691,16.90853 13.4725,-0.3303 24.4357,0.10682 36.5652,0.97513 5.5543,0.39761 14.5291,0.18228 20.0071,-0.81545 13.2885,-2.4203 29.5846,-6.37719 41.3086,-10.56525 -14.8892,-2.5169 -28.6336,-5.60641 -38.6752,-10.54716 z" /><path
         id="path50"
         style="fill:none;stroke:#000000;stroke-width:5.47263;stroke-linecap:butt;stroke-miterlimit:12.8;stroke-dasharray:none;stroke-opacity:1"
         d="m 1213.2169,156.00495 c -38.6336,6.65983 -76.1836,12.11543 -113.2143,16.99431 16.0295,7.88696 41.4949,11.05597 65.9898,14.71021 1.3914,0.20758 3.4006,-0.34537 4.4938,-1.23093 12.7115,-10.29707 26.7701,-20.4719 42.7307,-30.47359 z" /><path
         id="path51"
         style="fill:none;stroke:#000000;stroke-width:5.47263;stroke-linecap:butt;stroke-miterlimit:12.8;stroke-dasharray:none;stroke-opacity:1"
         d="m 1254.6309,148.46071 c -13.9567,2.68378 -27.7532,5.18933 -41.414,7.54424 -11.5743,7.25299 -22.1481,14.59698 -31.9334,22.01261 25.8369,-6.72489 48.8197,-3.14813 69.2521,-7.93854 4.0436,-0.94802 9.7027,-4.39869 8.1033,-10.21694 -1.1942,-4.3442 -2.181,-7.87647 -4.008,-11.40137 z" /><path
         id="path52"
         style="fill:none;stroke:#000000;stroke-width:5.47263;stroke-linecap:butt;stroke-miterlimit:12.8;stroke-dasharray:none;stroke-opacity:1"
         d="m 1256.4587,167.03115 c -1.7005,1.57506 -3.9953,2.5959 -5.9231,3.04787 -20.4325,4.79043 -43.4151,1.2136 -69.2521,7.93854 -3.7086,2.81042 -7.3038,5.631 -10.7973,8.46098 -1.0932,0.88556 -3.1024,1.43851 -4.4938,1.23093 -9.1502,-1.36506 -18.4355,-2.66219 -27.3141,-4.16305 -11.724,4.18806 -28.0205,8.14494 -41.3091,10.56525 -5.478,0.99772 -14.4528,1.21306 -20.0071,0.81545 -12.1294,-0.8683 -23.0923,-1.30587 -36.5646,-0.97565 -12.0614,7.89744 -23.8415,16.22988 -35.5188,24.72097 1.4453,1.76531 3.3022,3.3594 5.5361,4.79609 2.692,1.7312 7.5791,1.91056 10.4919,0.58033 8.1602,-3.72651 15.1727,-8.98351 22.4094,-13.94127 1.2939,-0.88639 3.2802,-0.71969 4.4876,0.28319 20.0903,16.68777 43.2304,9.96781 50.5556,0.72605 0.8606,-1.08569 2.4111,-1.68106 3.7078,-1.18701 13.0361,4.96703 17.0027,3.97482 21.8679,-2.30167 1.724,-2.22409 5.1415,-3.44068 7.5463,-1.99161 6.3589,3.83174 11.6496,9.53084 19.7538,2.26033 l 9.0289,-8.10028 c 4.7869,-4.17546 9.2118,-5.33405 13.0168,-0.80977 5.2104,6.19529 10.896,1.91546 14.6787,-1.97559 7.3513,-7.56206 11.7516,-7.78015 15.0291,-5.43584 3.4241,2.44914 7.7811,1.3896 12.1475,0.41858 1.9058,-0.42383 5.0265,-0.41306 6.9552,-0.10542 8.3458,1.33126 15.5917,1.92925 23.9158,0.18861 1.0194,-0.21315 2.7803,-0.6243 3.3533,-1.46347 0.8767,-1.28411 0.8922,-3.45693 0.4785,-5.34903 -0.2788,-1.27533 0.2643,-2.51446 1.5333,-2.83393 4.8686,-1.22555 9.7873,-2.17307 14.8962,-2.07636 1.795,0.034 3.982,-1.10088 4.2716,-2.86701 1.0858,-6.62064 -6.665,-9.34493 -14.4813,-10.45621 z" /><path
         id="path53"
         style="fill:none;stroke:#000000;stroke-width:5.47263;stroke-linecap:butt;stroke-miterlimit:0;stroke-dasharray:none;stroke-opacity:1"
         d="m 940.40668,221.36375 -0.0755,0.10904 c -1.04099,1.51198 -3.3576,2.94964 -5.18108,3.15743 -4.54581,0.518 -9.1825,0.71835 -14.17691,-0.33383 -1.75579,-0.3699 -4.50863,-0.31485 -6.15569,0.39739 -5.00405,2.16391 -8.89017,4.42696 -14.08907,4.84621 -2.48246,0.2002 -6.35933,-0.91152 -8.64288,-1.91564 l -2.24948,-0.98909 c -5.8501,3.81593 -8.94918,6.73999 -13.45312,10.58193 0.82313,0.11797 1.6835,0.3059 2.51322,0.28718 0.0393,0.002 0.0785,0.003 0.11783,0.005 25.29904,0.9823 50.83341,0.72103 76.50902,-0.44597 -4.07395,-4.69728 -8.34001,-9.29153 -12.86123,-13.748 -1.01181,-0.84742 -1.80476,-1.51924 -2.25516,-1.9513 z"
         sodipodi:nodetypes="ccsssssccccccc" /><path
         id="path54"
         style="fill:none;stroke:#000000;stroke-width:5.47263;stroke-linecap:butt;stroke-miterlimit:12.8;stroke-dasharray:none;stroke-opacity:1"
         d="m 1273.9646,200.11388 c -95.4135,10.90539 -194.2935,28.78508 -291.61423,35.418 -3.85367,2.84572 -7.70899,5.68873 -11.57242,8.51937 -3.2676,2.39409 -7.94818,1.73777 -10.5239,-1.38854 -1.54989,-1.88119 -3.12542,-3.74844 -4.73098,-5.59966 -26.47094,1.20315 -52.79165,1.44389 -78.85927,0.3514 l 1.01493,15.82746 c 0.12758,1.99031 1.84775,3.6123 3.84214,3.61528 122.82243,0.18342 257.61783,-20.58544 387.25083,-32.32051 2.8677,-0.2596 5.1929,-2.80001 5.1929,-5.67975 z" /><path
         id="path55"
         style="fill:none;stroke:#000000;stroke-width:5.47263;stroke-linecap:butt;stroke-miterlimit:12.8;stroke-dasharray:none;stroke-opacity:1"
         d="m 1256.7372,181.31193 c -1.6644,0.32135 -3.3175,0.70408 -4.965,1.1188 -1.269,0.31947 -1.8121,1.5586 -1.5333,2.83393 0.4137,1.8921 0.3982,4.06492 -0.4785,5.34903 -0.573,0.83917 -2.3339,1.25032 -3.3533,1.46347 -8.3241,1.74064 -15.57,1.14265 -23.9158,-0.18861 -1.9287,-0.30764 -5.0494,-0.31841 -6.9552,0.10542 -4.3664,0.97102 -8.7234,2.03056 -12.1475,-0.41858 -3.2775,-2.34431 -7.6778,-2.12622 -15.0291,5.43584 -3.7827,3.89105 -9.4683,8.17088 -14.6787,1.97559 -3.805,-4.52428 -8.2299,-3.36569 -13.0168,0.80977 l -9.0289,8.10028 c -8.1042,7.27051 -13.3949,1.57141 -19.7538,-2.26033 -2.4048,-1.44907 -5.8223,-0.23248 -7.5463,1.99161 -4.8652,6.27649 -8.8318,7.2687 -21.8679,2.30167 -1.2967,-0.49405 -2.8472,0.10132 -3.7078,1.18701 -7.3252,9.24176 -30.4653,15.96172 -50.5556,-0.72605 -1.2074,-1.00288 -3.1937,-1.16958 -4.4876,-0.28319 -7.2367,4.95776 -14.2492,10.21476 -22.4094,13.94127 -2.9128,1.33023 -7.7999,1.15087 -10.4919,-0.58033 -2.2339,-1.43666 -4.0908,-3.03083 -5.5361,-4.79609 -7.67022,5.57741 -15.29601,11.2234 -22.92833,16.85944 95.18883,-6.48761 191.86913,-23.73461 285.33863,-34.69143 2.0927,-0.28443 4.1859,-0.56491 6.2797,-0.84129 1.7668,-8.74409 -6.2386,-14.27385 -17.2315,-18.68723 z m -251.4585,37.36051 c 4.9726,-3.6158 10.1015,-6.99008 15.1252,-10.52701 l -0.5364,0.0682 c -4.8891,3.4459 -9.7478,6.93865 -14.5888,10.45879 z" /></g></g></svg>
